<svg width="36" height="36" viewBox="0 0 36 36" fill="none" xmlns="http://www.w3.org/2000/svg">
<path d="M21.6747 8.4528H17.5994C17.018 8.45671 16.4587 8.23014 16.0439 7.82268C15.6291 7.41522 15.3927 6.86006 15.3862 6.27867V2.19851C15.3862 1.61543 15.6179 1.05623 16.0302 0.643929C16.4425 0.231628 17.0017 0 17.5847 0H21.6747C22.2577 0 22.8169 0.231628 23.2292 0.643929C23.6415 1.05623 23.8732 1.61543 23.8732 2.19851V6.27867C23.8667 6.85752 23.6323 7.41047 23.2207 7.81752C22.8091 8.22456 22.2535 8.45284 21.6747 8.4528" fill="#426DA9"/>
<path d="M11.1258 17.6173H6.53375C6.20942 17.618 5.88815 17.5546 5.58832 17.431C5.28849 17.3073 5.016 17.1257 4.78643 16.8966C4.55687 16.6675 4.37475 16.3953 4.25048 16.0958C4.12622 15.7962 4.06226 15.475 4.06226 15.1507V10.5587C4.06226 9.9032 4.32264 9.27457 4.78614 8.81107C5.24964 8.34758 5.87827 8.08719 6.53375 8.08719H11.1258C11.4501 8.08719 11.7712 8.15115 12.0708 8.27541C12.3704 8.39968 12.6425 8.5818 12.8716 8.81137C13.1008 9.04093 13.2823 9.31343 13.406 9.61325C13.5297 9.91308 13.593 10.2344 13.5924 10.5587V15.1507C13.593 15.4748 13.5297 15.7958 13.4059 16.0954C13.2822 16.3949 13.1005 16.6671 12.8714 16.8963C12.6422 17.1255 12.37 17.3071 12.0705 17.4309C11.7709 17.5546 11.4499 17.618 11.1258 17.6173" fill="#883B92"/>
<path d="M10.687 27.1426H7.88397C7.68575 27.1432 7.48936 27.1047 7.30604 27.0293C7.12273 26.9539 6.9561 26.8431 6.81571 26.7031C6.67532 26.5632 6.56393 26.3969 6.48793 26.2139C6.41192 26.0308 6.3728 25.8345 6.3728 25.6363V22.8333C6.3728 22.6349 6.41189 22.4384 6.48783 22.255C6.56378 22.0717 6.67509 21.9051 6.81541 21.7648C6.95574 21.6244 7.12233 21.5131 7.30567 21.4372C7.48902 21.3612 7.68552 21.3221 7.88397 21.3221H10.687C11.0877 21.3221 11.4721 21.4814 11.7555 21.7648C12.0389 22.0482 12.1981 22.4325 12.1981 22.8333V25.6363C12.1981 25.8345 12.159 26.0308 12.083 26.2139C12.007 26.3969 11.8956 26.5632 11.7552 26.7031C11.6148 26.8431 11.4482 26.9539 11.2649 27.0293C11.0816 27.1047 10.8852 27.1432 10.687 27.1426Z" fill="#AF1685"/>
<path d="M18.2135 36H14.8987C14.4255 36 13.9717 35.812 13.6371 35.4774C13.3025 35.1428 13.1145 34.689 13.1145 34.2158V30.901C13.1145 30.6667 13.1607 30.4347 13.2503 30.2182C13.34 30.0018 13.4714 29.8051 13.6371 29.6394C13.8027 29.4737 13.9994 29.3423 14.2159 29.2527C14.4324 29.163 14.6644 29.1169 14.8987 29.1169H18.2135C18.6867 29.1169 19.1405 29.3048 19.4751 29.6394C19.8097 29.974 19.9976 30.4278 19.9976 30.901V34.2158C19.9976 34.689 19.8097 35.1428 19.4751 35.4774C19.1405 35.812 18.6867 36 18.2135 36" fill="#E63888"/>
<path d="M30.3613 10.1395H28.0604C27.7329 10.1395 27.4187 10.0097 27.1866 9.77853C26.9546 9.54738 26.8236 9.23369 26.8223 8.90615V6.61502C26.8223 6.28663 26.9527 5.97169 27.1849 5.73949C27.4171 5.50728 27.7321 5.37683 28.0604 5.37683H30.3564C30.684 5.37812 30.9977 5.50914 31.2288 5.74121C31.46 5.97327 31.5898 6.28747 31.5898 6.61502V8.90615C31.5898 9.23324 31.4598 9.54694 31.2285 9.77823C30.9972 10.0095 30.6835 10.1395 30.3564 10.1395" fill="#E63888"/>
<path d="M29.7083 19.3966C29.6547 16.0428 26.6616 13.1813 23.1323 13.1813C22.2508 13.1574 21.3733 13.3103 20.5519 13.6311C19.7304 13.9519 18.9816 14.4341 18.3496 15.0491C17.7176 15.6642 17.2153 16.3996 16.8723 17.2121C16.5293 18.0245 16.3525 18.8974 16.3525 19.7793C16.3525 20.6612 16.5293 21.5341 16.8723 22.3465C17.2153 23.159 17.7176 23.8944 18.3496 24.5095C18.9816 25.1245 19.7304 25.6067 20.5519 25.9275C21.3733 26.2483 22.2508 26.4012 23.1323 26.3773C24.8466 26.3857 26.4943 25.7143 27.7146 24.5102C27.887 24.366 28.0105 24.1718 28.068 23.9544C28.1254 23.737 28.1141 23.5072 28.0355 23.2965C27.9569 23.0858 27.8149 22.9047 27.6291 22.7781C27.4433 22.6515 27.2228 22.5857 26.998 22.5896C26.6566 22.6153 26.3385 22.7726 26.1108 23.0283C25.7176 23.4153 25.249 23.7172 24.734 23.9152C24.219 24.1131 23.6688 24.2028 23.1177 24.1788C22.0781 24.1955 21.0664 23.8425 20.2629 23.1827C19.4594 22.523 18.9163 21.5993 18.7304 20.5763H28.6846H28.7383C28.7766 20.5734 28.8143 20.5652 28.8504 20.5519C29.1012 20.4817 29.3216 20.3302 29.4769 20.121C29.6322 19.9119 29.7136 19.6571 29.7083 19.3966V19.3966ZM23.1323 15.3555C24.0641 15.3523 24.9726 15.6459 25.7264 16.1937C26.4801 16.7415 27.0399 17.515 27.3246 18.4022H18.9108C19.197 17.5102 19.7612 16.7332 20.5208 16.185C21.2804 15.6368 22.1956 15.3461 23.1323 15.3555V15.3555Z" fill="#1D4F91"/>
<path fill-rule="evenodd" clip-rule="evenodd" d="M30.974 26.4485C31.5335 26.4485 31.9888 26.0174 31.9888 25.4875C31.9888 24.9577 31.5335 24.5268 30.974 24.5268C30.4264 24.5268 29.9812 24.9577 29.9812 25.4875C29.9812 26.0174 30.4264 26.4485 30.974 26.4485ZM29.7473 25.4875C29.7473 24.8428 30.3093 24.298 30.974 24.298C31.6522 24.298 32.2041 24.8317 32.2041 25.4875C32.2041 26.1433 31.6522 26.677 30.974 26.677C30.3093 26.677 29.7473 26.1322 29.7473 25.4875ZM30.9492 25.4213C31.1407 25.4213 31.1429 25.2134 31.1429 25.2113C31.1429 25.203 31.1407 25.0102 30.9492 25.0102H30.8453V25.4213H30.9492ZM31.3866 25.2113C31.3866 25.3752 31.3078 25.5182 31.1743 25.599L31.3765 26.0264C31.3866 26.046 31.3866 26.062 31.3866 26.0762C31.3866 26.1216 31.3583 26.162 31.315 26.1788C31.3002 26.1859 31.2795 26.1907 31.26 26.1907C31.2148 26.1907 31.174 26.165 31.1558 26.1253L30.9373 25.6589H30.8453V26.0732C30.8453 26.1402 30.7938 26.1907 30.7254 26.1907C30.6575 26.1907 30.6023 26.1379 30.6023 26.0732V24.956C30.6023 24.8514 30.6726 24.7756 30.769 24.7756H30.9461C31.1973 24.7756 31.3866 24.9629 31.3866 25.2113Z" fill="#1D4F91"/>
</svg>
